<?xml version="1.0" standalone="no"?>
<!DOCTYPE svg PUBLIC "-//W3C//DTD SVG 20010904//EN"
 "http://www.w3.org/TR/2001/REC-SVG-20010904/DTD/svg10.dtd">
<svg version="1.0" xmlns="http://www.w3.org/2000/svg"
 width="713.000000pt" height="713.000000pt" viewBox="0 0 713.000000 713.000000"
 preserveAspectRatio="xMidYMid meet">
<metadata>
Created by potrace 1.14, written by Peter Selinger 2001-2017
</metadata>
<g transform="translate(0.000000,713.000000) scale(0.100000,-0.100000)"
fill="#000000" stroke="none">
<path d="M3338 7125 c-2 -2 -41 -6 -88 -9 -81 -7 -199 -21 -244 -31 -12 -2
-37 -7 -56 -9 -166 -24 -553 -132 -685 -191 -16 -8 -75 -33 -130 -56 -162 -67
-404 -199 -543 -295 -35 -24 -67 -44 -72 -44 -4 0 -10 -4 -12 -8 -1 -5 -28
-26 -58 -48 -59 -42 -63 -45 -130 -99 -133 -109 -328 -295 -427 -410 -84 -98
-87 -101 -113 -136 -14 -18 -32 -40 -40 -49 -8 -8 -26 -32 -40 -53 -14 -20
-28 -37 -32 -37 -5 0 -8 -4 -8 -9 0 -5 -19 -37 -42 -71 -24 -34 -47 -69 -53
-78 -5 -9 -29 -47 -52 -84 -24 -37 -40 -68 -35 -68 4 0 2 -4 -5 -8 -12 -8
-126 -227 -162 -312 -13 -30 -31 -73 -41 -95 -19 -42 -31 -73 -36 -90 -1 -5
-12 -35 -24 -65 -12 -30 -23 -62 -25 -70 -2 -8 -13 -43 -24 -76 -11 -34 -36
-125 -55 -201 -33 -136 -41 -174 -51 -238 -3 -16 -7 -41 -10 -55 -27 -130 -40
-316 -40 -565 0 -218 9 -358 29 -495 9 -57 27 -167 31 -187 12 -59 25 -114 44
-193 7 -25 14 -54 16 -66 11 -48 96 -296 135 -394 52 -129 161 -355 212 -436
21 -34 38 -64 38 -67 0 -10 162 -250 182 -270 10 -10 18 -21 18 -25 0 -4 13
-21 28 -39 15 -17 36 -43 46 -58 11 -14 28 -36 39 -48 176 -206 345 -371 522
-511 33 -26 67 -53 75 -60 9 -6 38 -27 65 -46 28 -19 52 -37 53 -42 2 -4 10
-8 18 -8 8 0 14 -4 14 -10 0 -5 4 -10 9 -10 6 0 39 -20 74 -44 36 -25 68 -42
71 -39 3 4 6 1 6 -5 0 -7 5 -12 10 -12 6 0 29 -12 53 -27 102 -64 377 -194
527 -248 41 -14 84 -30 95 -35 24 -10 241 -75 285 -85 3 0 23 -5 45 -10 22 -4
45 -9 50 -11 6 -1 26 -5 45 -8 19 -4 42 -9 50 -11 16 -4 71 -15 105 -20 11 -1
44 -6 74 -10 30 -3 63 -8 74 -11 131 -25 713 -25 843 0 12 2 43 7 70 11 27 3
56 7 64 9 8 1 38 6 65 10 51 8 130 25 245 52 83 20 335 99 386 121 21 9 44 18
49 19 47 10 370 165 465 222 19 12 49 29 65 38 34 18 251 161 275 180 8 7 51
41 95 75 80 63 107 85 151 126 13 12 24 20 24 18 0 -6 257 253 294 296 103
119 223 275 296 384 47 70 150 244 150 253 0 6 4 12 8 14 11 4 145 277 149
302 2 11 8 24 13 30 24 29 162 440 170 508 1 4 6 22 11 40 5 18 12 49 15 68 3
19 8 38 10 41 2 3 6 21 9 40 3 19 8 45 10 59 12 57 14 72 20 137 4 37 9 71 11
74 17 30 26 570 11 724 -5 44 -10 97 -12 118 -2 21 -6 50 -9 65 -3 15 -8 43
-10 62 -22 181 -135 597 -206 758 -22 48 -30 68 -41 97 -7 17 -13 32 -13 35
-2 6 -124 250 -136 270 -5 8 -32 56 -61 105 -56 96 -169 266 -200 301 -11 11
-19 24 -19 28 0 4 -6 13 -12 20 -7 7 -29 32 -48 56 -172 215 -383 423 -604
595 -21 17 -45 36 -52 43 -7 6 -17 12 -22 12 -5 0 -17 9 -27 20 -10 11 -24 20
-32 20 -7 0 -13 4 -13 8 0 4 -15 16 -32 27 -18 10 -35 21 -38 24 -3 4 -66 43
-140 87 -161 96 -348 189 -503 248 -61 24 -121 47 -132 51 -11 5 -22 9 -25 10
-3 1 -30 9 -60 19 -193 61 -476 127 -610 141 -30 3 -68 8 -85 11 -16 2 -52 7
-80 10 -55 6 -552 14 -557 9z"/>
</g>
</svg>
